<svg width="24" height="24" viewBox="0 0 24 24" fill="none" xmlns="http://www.w3.org/2000/svg">
<path d="M11.9996 20.9621C7.04961 20.9621 3.03711 16.9496 3.03711 11.9996C3.03711 7.04961 7.04961 3.03711 11.9996 3.03711C16.9496 3.03711 20.9621 7.04961 20.9621 11.9996C20.9621 16.9496 16.9496 20.9621 11.9996 20.9621ZM11.9996 4.01211C7.61211 4.01211 4.01211 7.61211 4.01211 11.9996C4.01211 16.3871 7.61211 19.9871 11.9996 19.9871C16.3871 19.9871 19.9871 16.3871 19.9871 11.9996C19.9871 7.61211 16.3871 4.01211 11.9996 4.01211Z" fill="#C94040" fill-opacity="0.5"/>
<path d="M11.4746 15.7119H12.5246V16.7619H11.4746V15.7119Z" fill="#C94040" fill-opacity="0.5"/>
<path d="M12.2996 14.6623H11.6996L11.4746 10.4248V7.2373H12.5246V10.4248L12.2996 14.6623Z" fill="#C94040" fill-opacity="0.5"/>
</svg>
