<svg width="48" height="48" viewBox="0 0 48 48" fill="none" xmlns="http://www.w3.org/2000/svg">
<path d="M23.016 8.21249C21.3285 8.49374 19.8285 9.29062 18.6941 10.5375C17.3816 11.9625 16.791 13.6125 16.7816 15.8156V16.7812H13.8098C11.016 16.7812 10.8098 16.7906 10.5285 16.9687C10.3598 17.0719 10.2004 17.25 10.1723 17.3625C10.1441 17.4844 10.1348 21.5437 10.1441 26.3906L10.1723 35.2031L10.4348 35.85C10.9504 37.1437 11.8691 38.1562 13.0785 38.7656C14.3066 39.3844 14.0816 39.375 24.0004 39.375C33.9098 39.375 33.6848 39.3844 34.9223 38.7656C36.1129 38.175 37.0504 37.1437 37.566 35.85L37.8285 35.2031L37.8566 26.3906C37.866 21.5437 37.8566 17.4844 37.8285 17.3625C37.8004 17.25 37.641 17.0719 37.4723 16.9687C37.191 16.7906 36.9848 16.7812 34.2004 16.7812H31.2191V15.8812C31.2191 14.775 31.0879 13.875 30.7879 13.0031C30.0379 10.8 28.116 9.01874 25.8285 8.39999C25.2566 8.24062 23.5316 8.13749 23.016 8.21249ZM25.3598 10.2656C26.7379 10.6312 28.1066 11.7562 28.716 13.0312C29.1379 13.9406 29.2504 14.4937 29.2504 15.75V16.7812H24.0004H18.7504V15.75C18.7504 14.4937 18.8629 13.9406 19.2848 13.0312C19.8848 11.775 21.2535 10.6406 22.6035 10.275C23.2785 10.0875 24.666 10.0875 25.3598 10.2656ZM16.7816 20.0156C16.7816 21.7125 16.941 22.0312 17.7848 22.0312C18.1879 22.0312 18.516 21.7969 18.666 21.4031C18.7129 21.2812 18.7504 20.625 18.7504 19.9594V18.75H24.0004H29.2504V19.9594C29.2504 20.6156 29.2973 21.2906 29.3535 21.45C29.4754 21.8156 29.8035 22.0312 30.2348 22.0312C31.0504 22.0312 31.2191 21.6937 31.2191 20.0156V18.75H33.6098H36.0004V26.5687C36.0004 34.1344 35.991 34.4062 35.8129 34.9781C35.4754 36.0469 34.7348 36.825 33.6941 37.2187C33.1879 37.4062 33.0004 37.4062 24.0004 37.4062C14.9441 37.4062 14.8129 37.4062 14.2973 37.2094C13.266 36.825 12.4598 35.9531 12.1504 34.8844C12.0191 34.4344 12.0004 33.4219 12.0004 26.5594V18.75H14.391H16.7816V20.0156Z" fill="black"/>
</svg>
