<svg width="35" height="35" viewBox="0 0 35 35" fill="none" xmlns="http://www.w3.org/2000/svg">
<path d="M16.7823 5.9883C15.5519 6.19337 14.4581 6.77443 13.631 7.68362C12.6739 8.72268 12.2433 9.9258 12.2364 11.5322V12.2363H10.0695C8.03234 12.2363 7.88199 12.2432 7.67687 12.373C7.55386 12.4483 7.43763 12.5781 7.41715 12.6602C7.39658 12.7491 7.3898 15.709 7.39658 19.2432L7.41715 25.6689L7.60855 26.1406C7.98451 27.084 8.65439 27.8223 9.53625 28.2666C10.4317 28.7178 10.2677 28.711 17.5001 28.711C24.7257 28.711 24.5617 28.7178 25.464 28.2666C26.3322 27.836 27.0158 27.084 27.3917 26.1406L27.5831 25.6689L27.6036 19.2432C27.6105 15.709 27.6036 12.7491 27.5831 12.6602C27.5626 12.5781 27.4464 12.4483 27.3234 12.373C27.1183 12.2432 26.9679 12.2363 24.9376 12.2363H22.7638V11.5801C22.7638 10.7735 22.6681 10.1172 22.4494 9.48145C21.9025 7.87502 20.5011 6.57619 18.8331 6.12502C18.4161 6.00881 17.1583 5.93361 16.7823 5.9883ZM18.4914 7.48536C19.4962 7.75194 20.4942 8.57225 20.9386 9.50194C21.2462 10.165 21.3283 10.5683 21.3283 11.4844V12.2363H17.5001H13.672V11.4844C13.672 10.5683 13.754 10.165 14.0617 9.50194C14.4992 8.58596 15.4972 7.75879 16.4816 7.49221C16.9737 7.35549 17.9855 7.35549 18.4914 7.48536ZM12.2364 14.5947C12.2364 15.8321 12.3527 16.0644 12.9679 16.0644C13.2619 16.0644 13.5011 15.8936 13.6105 15.6064C13.6447 15.5176 13.672 15.0391 13.672 14.5538V13.6719H17.5001H21.3283V14.5538C21.3283 15.0322 21.3625 15.5244 21.4034 15.6406C21.4923 15.9072 21.7316 16.0644 22.0461 16.0644C22.6408 16.0644 22.7638 15.8183 22.7638 14.5947V13.6719H24.507H26.2501V19.373C26.2501 24.8897 26.2433 25.0879 26.1134 25.5049C25.8673 26.2842 25.3273 26.8516 24.5685 27.1387C24.1994 27.2754 24.0626 27.2754 17.5001 27.2754C10.8966 27.2754 10.8009 27.2754 10.425 27.1319C9.67297 26.8516 9.08511 26.2158 8.85951 25.4366C8.76377 25.1084 8.75013 24.3702 8.75013 19.3663V13.6719H10.4933H12.2364V14.5947Z" fill="white"/>
</svg>
