<svg width="137" height="63" viewBox="0 0 137 63" fill="none" xmlns="http://www.w3.org/2000/svg">
<path d="M25.7092 50.8187C25.7108 53.2438 26.496 55.9129 28.276 57.6436C30.9123 60.207 35.1888 59.8603 38.0227 57.8799C42.1334 55.0071 44.2239 49.6667 45.7527 45.111C46.3288 43.3945 47.0753 41.4262 47.1552 39.6072C48.3983 39.7046 49.5978 39.811 50.8492 39.811C50.3601 40.8502 49.7083 41.8081 49.2512 42.8687C47.23 47.56 46.2731 54.6121 51.4649 57.6879C52.422 58.2551 53.452 58.6626 54.5432 58.8906C55.8703 59.1679 57.3132 59.1689 58.6477 58.9294C64.2554 57.9229 67.735 53.6623 72.3978 50.9207C71.9778 51.8887 71.3201 52.758 71.5077 53.8764C71.7737 55.4619 74.1338 57.7068 75.784 56.5204C77.0224 55.6301 77.9424 54.1621 78.8493 52.9591C80.8859 50.2575 82.7165 47.4077 84.7496 44.7033C85.5463 43.6437 86.3269 42.578 87.2766 41.646C87.5294 41.398 87.9746 40.8462 88.3917 40.9752C89.2642 41.2453 88.4362 43.3413 88.2908 43.888C87.6653 46.2402 85.8208 50.0008 88.5079 51.5879C88.8929 51.8153 89.3789 52.1097 89.8419 52.1057C90.73 52.098 91.3357 50.9638 91.7295 50.3091C92.9185 48.3322 93.8338 46.1266 95.4005 44.3976C95.8019 43.9545 97.0184 42.5222 97.7274 42.7246C98.1546 42.8465 97.9588 43.4874 97.9048 43.786C97.7202 44.8051 97.4546 45.8135 97.3377 46.8437C96.9758 50.0344 97.3225 53.3757 98.9613 56.2207C100.003 58.0298 101.893 59.099 103.9 58.0735C104.562 57.7353 105.33 57.0478 105.19 56.2207C105.037 55.3197 104.154 54.4457 103.696 53.6726C102.816 52.188 102.134 50.6141 101.968 48.8822C101.79 47.0367 102.218 45.0902 102.894 43.3783C103.296 42.3618 104.157 41.1319 104.094 40.0149C103.974 37.8756 100.394 36.0405 98.4613 36.8021C96.6723 37.5072 95.3667 39.5177 94.049 40.8303C94.049 39.7207 94.2796 38.5705 94.1208 37.4668C93.8055 35.2745 91.5815 33.611 89.4314 34.5635C86.4432 35.8873 84.3486 38.9446 81.9407 41.0341C83.249 38.7528 85.0468 36.6185 86.6229 34.511C87.2358 33.6914 88.0684 32.8778 88.5245 31.9629C89.2026 30.6027 88.0815 28.8441 86.6609 28.5373C85.3843 28.2617 84.4371 29.3736 83.6986 30.2302C81.8748 32.346 80.4011 34.7402 78.8621 37.0591C77.6784 38.8423 76.5262 40.7918 75.0566 42.3591C71.9282 45.6953 67.5483 48.6015 63.5731 50.8474C61.5785 51.9742 58.702 53.7519 56.2877 53.3195C53.6375 52.8449 52.7372 48.9056 53.0477 46.6399C53.7283 41.6739 57.2604 36.2343 62.1366 34.4324C64.2289 33.6592 66.9263 34.7943 66.7351 37.3649C66.5667 39.6287 64.8156 41.4197 64.459 43.5822C64.2171 45.0493 65.9087 45.871 67.1646 45.8204C69.1355 45.7411 70.5733 43.9069 71.3111 42.2572C72.8275 38.8661 73.5012 32.9203 69.2168 31.1494C65.8291 29.7491 61.3925 30.8687 58.3399 32.5604C57.0672 33.2657 56.0201 34.3328 54.7485 35.0081C53.4574 35.6936 51.8775 35.8365 50.4387 35.836C49.1513 35.8355 47.8261 35.5374 46.6421 35.0336C45.0895 34.3731 43.2593 33.1185 41.7357 34.6318C40.922 35.4399 40.59 37.0127 41.0531 38.0783C41.3255 38.7051 41.9221 39.1725 41.8492 39.9129C41.5065 43.39 40.1141 47.3551 37.8174 50.0033C36.7843 51.1946 34.6647 53.4445 32.8921 52.3481C31.0043 51.1805 31.4932 48.2775 32.0712 46.538C33.6193 41.8791 36.904 37.5422 40.6906 34.4346C41.3975 33.8544 42.1208 33.3072 42.948 32.9066C43.6642 32.5599 44.5295 32.2999 45.0374 31.6477C46.2019 30.1522 44.5765 28.3022 43.1533 27.7933C39.9784 26.6581 36.7679 29.7432 34.7391 31.7591C32.8718 33.6144 31.2526 35.7512 29.8573 37.9764C29.2177 38.9963 28.7388 40.1634 28.0384 41.136C25.2756 44.9725 21.4368 48.5421 17.808 51.5573C15.8789 53.1603 13.8154 54.8186 11.4461 55.7303C10.4136 56.1276 9.22771 56.4633 8.16246 55.9808C6.50281 55.2291 6.18444 53.3124 6.62446 51.736C7.45764 48.7512 9.74596 45.9862 11.8605 43.786C17.2829 38.144 23.8897 33.648 29.066 27.7841C32.2364 24.1924 34.5712 19.9945 36.2976 15.5533C37.0286 13.6728 37.4035 11.7404 37.5948 9.74367C37.6873 8.77814 37.5528 7.72366 37.3174 6.78789C35.2496 -1.42996 23.8429 -0.806286 17.6028 1.53122C9.71811 4.48477 3.71703 10.548 1.04801 18.5091C-0.11693 21.9837 -0.608053 26.3568 1.16273 29.7206C4.37 35.8132 14.1697 34.1006 16.9901 28.4975C17.752 26.984 18.1476 23.9246 15.7558 23.6241C13.1103 23.2917 11.7003 26.0108 9.90687 27.4516C9.18699 28.03 8.02688 28.8585 7.03372 28.6169C4.78489 28.07 4.91181 24.7239 5.10111 22.9937C5.66454 17.8436 8.75335 12.5778 12.5748 9.14942C16.3605 5.75302 21.5542 3.40239 26.7353 4.02016C29.6005 4.36179 32.6663 5.91874 33.3809 8.92828C34.2785 12.7085 31.8427 16.9505 29.8835 20.0379C24.5207 28.4895 15.7945 33.9966 8.77813 40.9323C5.11791 44.5504 0.290975 49.5703 2.21134 55.2014C2.68312 56.5848 3.54292 57.8372 4.57143 58.8707C5.34234 59.6453 6.15342 60.3367 7.13634 60.8321C12.9339 63.7539 19.0558 57.9714 22.6016 53.9784C23.5526 52.9072 24.5913 51.714 25.7092 50.8187Z" fill="#2B2B29"/>
<path d="M114.879 35.0206C112.107 39.4817 108.033 44.0429 107.509 49.4937C107.195 52.7565 110.062 56.8164 113.648 55.5739C117.505 54.2373 120.312 50.7455 123.088 47.9648C123.088 52.3074 123.264 57.309 126.578 60.6018C128.985 62.9917 133.85 64.3398 136.048 61.011C136.587 60.1959 137.734 57.9413 136.321 57.3427C135.15 56.8465 133.792 57.6168 132.631 57.732C130.364 57.9573 128.515 55.9854 127.915 53.9783C126.975 50.8355 128.446 47.1567 129.699 44.2956C130.182 43.1941 130.972 42.1394 131.15 40.9321C131.387 39.3116 129.717 37.0656 128.116 36.7868C126.554 36.5148 125.418 37.7983 124.422 38.7917C122.033 41.1775 119.961 43.8632 117.547 46.2317C116.716 47.0475 115.744 47.9474 114.674 48.4414C114.298 48.6155 113.733 48.8541 113.373 48.5282C112.954 48.1506 113.212 47.4799 113.386 47.0475C113.893 45.7966 114.61 44.6011 115.359 43.4802L116.932 41.136C119.039 38.0105 122.357 34.7911 120.049 30.8417C119.701 30.2457 119.261 29.7059 118.676 29.3239C117.529 28.5752 116.14 28.92 114.982 29.4463C112.607 30.5268 110.368 32.0458 108.312 33.6369C107.499 34.2672 106.282 35.1296 105.937 36.1417C105.358 37.8441 107.368 40.4563 109.236 39.7081C110.071 39.3736 110.748 38.4304 111.316 37.7725C112.341 36.5856 113.324 35.4687 114.879 35.0206Z" fill="#2B2B29"/>
</svg>
