<svg width="9" height="15" viewBox="0 0 9 15" fill="none" xmlns="http://www.w3.org/2000/svg">
<path d="M1.02773 0.149879L0.27633 0.901328C0.175989 1.00146 0.125977 1.1168 0.125977 1.2472C0.125977 1.37729 0.175989 1.49258 0.27633 1.59271L6.18322 7.49992L0.276488 13.4069C0.176147 13.507 0.126134 13.6223 0.126134 13.7526C0.126134 13.8829 0.176147 13.9982 0.276488 14.0983L1.02794 14.8496C1.12807 14.95 1.24336 15 1.37366 15C1.50385 15 1.61914 14.9498 1.71927 14.8496L8.72343 7.84564C8.82362 7.74551 8.87368 7.63016 8.87368 7.49992C8.87368 7.36968 8.82362 7.25454 8.72343 7.15447L1.71927 0.149879C1.61909 0.0497486 1.50379 1.47038e-07 1.37366 1.47038e-07C1.24336 1.47038e-07 1.12807 0.0497486 1.02773 0.149879Z" fill="black"/>
</svg>
