<svg width="21" height="21" viewBox="0 0 21 21" fill="none" xmlns="http://www.w3.org/2000/svg">
<g clip-path="url(#clip0_1546_242)">
<path d="M14.5859 3.03699C12.3978 3.09012 10.6314 3.2495 9.41612 3.49852C6.88937 4.01981 5.3255 5.07235 4.47218 6.83543C3.99073 7.83485 3.78819 8.89403 3.86456 10.0727C3.93761 11.2714 4.23976 12.2641 4.77433 13.061L4.92706 13.2868L4.74776 13.579C3.68859 15.3354 3.10089 17.2114 3.01124 19.1372C2.99132 19.5622 2.99464 19.6386 3.04776 19.7448C3.20382 20.0735 3.63546 20.0802 3.79484 19.7548C3.84796 19.6419 3.86124 19.5489 3.86124 19.2833C3.86456 18.3304 4.12687 17.0155 4.5253 15.9663C5.1628 14.2962 6.16222 12.7888 7.56339 11.3809C8.63585 10.3018 9.71827 9.50828 10.9667 8.88407C11.8931 8.4159 12.6601 8.17684 13.4038 8.11707C13.7857 8.08719 13.8819 8.04735 13.9882 7.87137C14.0712 7.73856 14.0712 7.62899 13.9948 7.48621C13.8886 7.29032 13.7591 7.24051 13.3872 7.26375C11.0763 7.40321 7.94191 9.38211 5.83351 12.0417C5.65421 12.2641 5.49151 12.4667 5.46827 12.4932C5.40187 12.5663 5.04991 11.8159 4.92374 11.3345C4.75109 10.6638 4.71124 10.3516 4.71124 9.6245C4.71124 8.60848 4.84405 8.02742 5.27237 7.16746C6.23526 5.23172 8.17765 4.32196 12.0126 4.01317C13.2776 3.91356 13.9882 3.89032 16.505 3.87371L19.0716 3.85711L19.055 3.93348C19.0417 3.97664 18.9819 4.27547 18.9155 4.59422C18.2681 7.7452 17.2155 10.335 15.8808 12.0649C15.5753 12.4634 14.722 13.3167 14.3601 13.5889C13.178 14.4821 11.8798 14.9204 10.4255 14.9204C9.31319 14.9204 8.14444 14.6481 7.2214 14.1733C6.89601 14.0073 6.80636 13.994 6.62374 14.087C6.48097 14.16 6.41788 14.2696 6.41788 14.4489C6.41788 14.6315 6.51417 14.7577 6.75323 14.8872C7.65304 15.3753 8.77198 15.6741 9.96066 15.7538C12.9357 15.9464 15.4956 14.4489 17.3151 11.454C18.1485 10.086 18.8823 8.23993 19.4136 6.18797C19.656 5.25164 19.998 3.62469 19.998 3.40555C19.998 3.28602 19.905 3.1366 19.7888 3.06688C19.6859 3.00379 19.6128 3.00047 17.6239 3.00711C16.4917 3.01043 15.1237 3.02371 14.5859 3.03699Z" fill="#7B9561"/>
</g>
<line x1="0.353553" y1="0.646447" x2="20.1525" y2="20.4454" stroke="#7B9561"/>
<defs>
<clipPath id="clip0_1546_242">
<rect width="17" height="17" fill="white" transform="translate(3 3)"/>
</clipPath>
</defs>
</svg>
