<svg width="22" height="22" viewBox="0 0 22 22" fill="none" xmlns="http://www.w3.org/2000/svg">
<g clip-path="url(#clip0_1046_132)">
<path d="M13.634 2.03117C11.0595 2.09371 8.9811 2.28131 7.55124 2.57445C4.57823 3.18808 2.73816 4.42706 1.73414 6.50245C1.16766 7.67889 0.929352 8.92569 1.01921 10.3132C1.10515 11.7241 1.46067 12.8928 2.08965 13.8308L2.26936 14.0966L2.05839 14.4405C0.81215 16.5081 0.120661 18.7164 0.0151797 20.9833C-0.0082606 21.4836 -0.00435388 21.5734 0.0581536 21.6985C0.241769 22.0855 0.749643 22.0933 0.937165 21.7102C0.999673 21.5774 1.0153 21.4679 1.0153 21.1552C1.01921 20.0335 1.32784 18.4858 1.79664 17.2507C2.54673 15.2847 3.72266 13.5103 5.37129 11.8531C6.63316 10.5829 7.90675 9.64875 9.37568 8.91396C10.4657 8.36287 11.3681 8.08146 12.2432 8.01111C12.6925 7.97593 12.8058 7.92903 12.9308 7.72188C13.0285 7.56554 13.0285 7.43657 12.9386 7.2685C12.8136 7.0379 12.6612 6.97928 12.2237 7.00664C9.5046 7.17079 5.81666 9.50023 3.33589 12.6309C3.12493 12.8928 2.9335 13.1312 2.90615 13.1625C2.82802 13.2484 2.41391 12.3651 2.26545 11.7984C2.0623 11.0089 2.01542 10.6415 2.01542 9.78555C2.01542 8.58956 2.17169 7.90558 2.67566 6.89329C3.8086 4.61466 6.09403 3.54375 10.6063 3.18026C12.0948 3.06301 12.9308 3.03565 15.8921 3.0161L18.912 2.99656L18.8924 3.08646C18.8768 3.13727 18.8065 3.48903 18.7284 3.86424C17.9666 7.57336 16.7281 10.622 15.1576 12.6583C14.7982 13.1273 13.7942 14.1317 13.3683 14.4522C11.9776 15.5036 10.45 16.0195 8.73888 16.0195C7.43013 16.0195 6.05497 15.699 4.9689 15.1401C4.58604 14.9447 4.48056 14.9291 4.26569 15.0385C4.0977 15.1245 4.02347 15.2535 4.02347 15.4645C4.02347 15.6795 4.13677 15.828 4.41805 15.9804C5.47677 16.555 6.79334 16.9068 8.19194 17.0006C11.6924 17.2272 14.7044 15.4645 16.8453 11.9391C17.8259 10.3288 18.6893 8.15572 19.3144 5.7403C19.5996 4.63811 20.002 2.72297 20.002 2.46501C20.002 2.32431 19.8926 2.14843 19.7558 2.06635C19.6347 1.99209 19.5488 1.98818 17.2087 1.996C15.8765 1.99991 14.2669 2.01554 13.634 2.03117Z" fill="#7B9561"/>
<line x1="0.353553" y1="-0.353553" x2="20.1525" y2="19.4454" stroke="#7B9561"/>
</g>
<defs>
<clipPath id="clip0_1046_132">
<rect width="22" height="22" fill="white"/>
</clipPath>
</defs>
</svg>
