<svg width="21" height="23" viewBox="0 0 21 23" fill="none" xmlns="http://www.w3.org/2000/svg">
<path d="M7.07634 0.0273784C6.72638 0.138123 6.50489 0.355183 6.4163 0.674128C6.34985 0.922196 6.35428 2.29986 6.42073 2.53021C6.48718 2.7517 6.79283 3.06622 6.97445 3.10608L7.11178 3.13709L6.87257 3.59336C6.07521 5.11721 5.18482 8.01429 5.03863 9.56029C5.0032 9.90138 4.99434 11.7265 5.0032 15.2038L5.01648 20.3424L5.11837 20.6348C5.37973 21.41 6.02648 21.9947 6.80612 22.163C7.23581 22.2516 12.7642 22.2516 13.1939 22.163C13.9735 21.9947 14.6203 21.41 14.8816 20.6348L14.9835 20.3424L14.9968 15.2038C15.0057 11.8106 14.9968 9.89695 14.9614 9.57358C14.8196 8.06745 13.9602 5.26782 13.1584 3.69524C13.0167 3.42503 12.8971 3.18582 12.8882 3.1681C12.8794 3.15481 12.937 3.12823 13.0167 3.11051C13.2072 3.06621 13.5128 2.75613 13.5793 2.53021C13.6457 2.29986 13.6501 0.922196 13.5837 0.674128C13.5173 0.430489 13.3534 0.226718 13.1319 0.107114L12.9458 0.00965892L10.0664 0.000800046C8.48501 -0.00362975 7.13835 0.00965927 7.07634 0.0273784ZM12.7022 1.58223V2.2467H10H7.29783V1.58223V0.917766H10H12.7022V1.58223ZM11.896 3.34086C12.5294 4.15151 13.3932 6.43286 13.9115 8.6699L14.0533 9.26792L14.0665 14.721C14.0754 20.1165 14.0754 20.1785 13.9868 20.4177C13.8583 20.7588 13.6369 20.998 13.2869 21.1708L12.9901 21.317H10H7.00989L6.71309 21.1708C6.36314 20.998 6.14165 20.7588 6.01319 20.4177C5.92459 20.1785 5.92459 20.1165 5.93345 14.721L5.94674 9.26792L6.08849 8.64775C6.57577 6.52145 7.51489 4.01862 8.07304 3.36301L8.23694 3.17696H10H11.7631L11.896 3.34086Z" fill="#7B9561"/>
<line x1="0.353553" y1="0.646447" x2="20.1525" y2="20.4454" stroke="#7B9561"/>
</svg>
