<svg width="25" height="24" viewBox="0 0 25 24" fill="none" xmlns="http://www.w3.org/2000/svg">
<path d="M16.5666 4H8.28344V4.5C8.28344 4.77614 8.05165 5 7.76574 5C7.47982 5 7.24804 4.77614 7.24804 4.5V4H5.69494C4.83719 4 4.14184 4.67157 4.14184 5.5V8H20.7082V5.5C20.7082 4.67157 20.0129 4 19.1551 4H17.602V4.5C17.602 4.77614 17.3702 5 17.0843 5C16.7984 5 16.5666 4.77614 16.5666 4.5V4ZM17.602 3H19.1551C20.5847 3 21.7436 4.11929 21.7436 5.5V18.5074C21.7436 19.8881 20.5847 21.0074 19.1551 21.0074H5.69494C4.26535 21.0074 3.10645 19.8881 3.10645 18.5074V5.5C3.10645 4.11929 4.26535 3 5.69494 3H7.24804V2.5C7.24804 2.22386 7.47982 2 7.76574 2C8.05165 2 8.28344 2.22386 8.28344 2.5V3H16.5666V2.5C16.5666 2.22386 16.7984 2 17.0843 2C17.3702 2 17.602 2.22386 17.602 2.5V3ZM20.7082 9H4.14184V18.5074C4.14184 19.3358 4.83719 20.0074 5.69494 20.0074H19.1551C20.0129 20.0074 20.7082 19.3358 20.7082 18.5074V9Z" fill="black"/>
</svg>
