<svg width="21" height="20" viewBox="0 0 21 20" fill="none" xmlns="http://www.w3.org/2000/svg">
<path d="M7.1482 0.0246857C6.79469 0.124323 6.57095 0.319612 6.48146 0.606568C6.41434 0.829756 6.41881 2.06925 6.48593 2.27649C6.55306 2.47577 6.86181 2.75874 7.04528 2.79461L7.184 2.8225L6.94236 3.23301C6.1369 4.60402 5.23747 7.21054 5.08981 8.60148C5.05401 8.90836 5.04506 10.5504 5.05401 13.679L5.06743 18.3022L5.17035 18.5652C5.43436 19.2627 6.08768 19.7888 6.87524 19.9402C7.30929 20.0199 12.8938 20.0199 13.3278 19.9402C14.1154 19.7888 14.7687 19.2627 15.0327 18.5652L15.1357 18.3022L15.1491 13.679C15.158 10.6261 15.1491 8.90437 15.1133 8.61343C14.9701 7.25836 14.102 4.73953 13.2921 3.32468C13.1489 3.08156 13.028 2.86635 13.0191 2.8504C13.0101 2.83845 13.0683 2.81453 13.1489 2.79859C13.3413 2.75874 13.65 2.47975 13.7172 2.27649C13.7843 2.06925 13.7887 0.829756 13.7216 0.606568C13.6545 0.387366 13.4889 0.204032 13.2652 0.0964236L13.0773 0.00874334L10.1687 0.000772984C8.57117 -0.00321251 7.21085 0.00874366 7.1482 0.0246857ZM12.8311 1.4236V2.02142H10.1015H7.37194V1.4236V0.82577H10.1015H12.8311V1.4236ZM12.0167 3.00584C12.6566 3.73518 13.5292 5.78772 14.0528 7.80039L14.196 8.33843L14.2094 13.2446C14.2183 18.0989 14.2183 18.1547 14.1288 18.3699C13.9991 18.6768 13.7753 18.892 13.4218 19.0475L13.122 19.179H10.1015H7.08108L6.78127 19.0475C6.42776 18.892 6.20402 18.6768 6.07426 18.3699C5.98476 18.1547 5.98476 18.0989 5.99371 13.2446L6.00713 8.33843L6.15033 7.78046C6.64255 5.86743 7.5912 3.61562 8.15502 3.02576L8.32059 2.85837H10.1015H11.8825L12.0167 3.00584Z" fill="black"/>
<line y1="-0.5" x2="26.7827" y2="-0.5" transform="matrix(0.746752 0.665103 -0.746752 0.665103 0 0.899414)" stroke="black"/>
</svg>
