<svg width="21" height="21" viewBox="0 0 21 21" fill="none" xmlns="http://www.w3.org/2000/svg">
<g clip-path="url(#clip0_1048_847)">
<path d="M14.5878 3.03797C12.3997 3.0911 10.6333 3.25047 9.41808 3.4995C6.89132 4.02078 5.32745 5.07332 4.47413 6.83641C3.99269 7.83582 3.79015 8.895 3.86651 10.0737C3.93956 11.2723 4.24171 12.2651 4.77628 13.062L4.92901 13.2878L4.74972 13.58C3.69054 15.3364 3.10284 17.2124 3.01319 19.1382C2.99327 19.5632 2.99659 19.6395 3.04972 19.7458C3.20577 20.0745 3.63741 20.0811 3.79679 19.7557C3.84991 19.6429 3.86319 19.5499 3.86319 19.2843C3.86651 18.3313 4.12882 17.0165 4.52726 15.9673C5.16476 14.2972 6.16417 12.7897 7.56534 11.3819C8.6378 10.3028 9.72023 9.50926 10.9687 8.88504C11.895 8.41688 12.662 8.17782 13.4058 8.11805C13.7876 8.08817 13.8839 8.04832 13.9901 7.87235C14.0732 7.73953 14.0732 7.62996 13.9968 7.48719C13.8905 7.29129 13.761 7.24149 13.3892 7.26473C11.0782 7.40418 7.94386 9.38309 5.83546 12.0427C5.65616 12.2651 5.49347 12.4677 5.47023 12.4942C5.40382 12.5673 5.05187 11.8169 4.92569 11.3354C4.75304 10.6647 4.71319 10.3526 4.71319 9.62547C4.71319 8.60946 4.84601 8.0284 5.27433 7.16844C6.23722 5.2327 8.1796 4.32293 12.0146 4.01414C13.2796 3.91454 13.9901 3.89129 16.5069 3.87469L19.0735 3.85809L19.0569 3.93446C19.0437 3.97762 18.9839 4.27645 18.9175 4.5952C18.27 7.74618 17.2175 10.336 15.8827 12.0659C15.5773 12.4643 14.7239 13.3177 14.362 13.5899C13.18 14.4831 11.8817 14.9214 10.4275 14.9214C9.31515 14.9214 8.1464 14.6491 7.22335 14.1743C6.89796 14.0083 6.80831 13.995 6.62569 14.088C6.48292 14.161 6.41984 14.2706 6.41984 14.4499C6.41984 14.6325 6.51612 14.7587 6.75519 14.8882C7.65499 15.3763 8.77394 15.6751 9.96261 15.7548C12.9376 15.9473 15.4976 14.4499 17.3171 11.455C18.1505 10.087 18.8843 8.2409 19.4155 6.18895C19.6579 5.25262 19.9999 3.62567 19.9999 3.40653C19.9999 3.28699 19.9069 3.13758 19.7907 3.06786C19.6878 3.00477 19.6148 3.00145 17.6259 3.00809C16.4937 3.01141 15.1257 3.02469 14.5878 3.03797Z" fill="black"/>
</g>
<line x1="0.353553" y1="0.646447" x2="20.1525" y2="20.4454" stroke="black"/>
<defs>
<clipPath id="clip0_1048_847">
<rect width="17" height="17" fill="white" transform="translate(3 3)"/>
</clipPath>
</defs>
</svg>
