<svg width="17" height="16" viewBox="0 0 17 16" fill="none" xmlns="http://www.w3.org/2000/svg">
<path d="M0.618717 16C0.53776 16.0005 0.457505 15.9849 0.382557 15.9543C0.307609 15.9237 0.23944 15.8786 0.181961 15.8216C0.124303 15.7644 0.0785397 15.6963 0.0473093 15.6213C0.016079 15.5463 0 15.4659 0 15.3847C0 15.3035 0.016079 15.2231 0.0473093 15.1481C0.0785397 15.0731 0.124303 15.005 0.181961 14.9478L14.9456 0.180951C15.0614 0.06509 15.2185 0 15.3823 0C15.5461 0 15.7033 0.06509 15.8191 0.180951C15.9349 0.296812 16 0.453953 16 0.617805C16 0.781657 15.9349 0.938798 15.8191 1.05466L1.05547 15.8216C0.997995 15.8786 0.929826 15.9237 0.854878 15.9543C0.779929 15.9849 0.699675 16.0005 0.618717 16Z" fill="black"/>
<path d="M16.3813 16C16.3003 16.0005 16.2201 15.9849 16.1451 15.9543C16.0702 15.9237 16.002 15.8786 15.9445 15.8216L1.18091 1.05466C1.06508 0.938798 1 0.781657 1 0.617805C1 0.453953 1.06508 0.296812 1.18091 0.180951C1.29675 0.0650899 1.45385 1.22079e-09 1.61767 0C1.78148 -1.22079e-09 1.93859 0.0650899 2.05442 0.180951L16.818 14.9478C16.8757 15.005 16.9215 15.0731 16.9527 15.1481C16.9839 15.2231 17 15.3035 17 15.3847C17 15.4659 16.9839 15.5463 16.9527 15.6213C16.9215 15.6963 16.8757 15.7644 16.818 15.8216C16.7606 15.8786 16.6924 15.9237 16.6174 15.9543C16.5425 15.9849 16.4622 16.0005 16.3813 16Z" fill="black"/>
</svg>
